# xmcd
#
# Track frame offsets:
#	150
#	13047
#	32050
#	47715
#	62747
#	81000
#	94947
#	106200
#	120647
#	132640
#
# Disc length: 1954 seconds
#
# Revision: 2
# Processed by: cddbd v1.5.1PL0 Copyright (c) Steve Scherf et al.
# Submitted via: dBpowerAMP V4.0
#
DISCID=8207a00a
DTITLE=DeanDillon,LakeCity,TN - I´veLearnedToLive;Capitol7-92079-2
DYEAR=1989
DGENRE=Country
TTITLE0=JustInTime(DDillon,FDycus;1989,DeanDillon,LakeCity,TN)
TTITLE1=ChangesComin'On(DDillon,Cannon,Darrell;1989,DeanDillon,LakeCity,TN)
TTITLE2=WhoDoYouThinkYouAre(DDillon,FDycus;1989,DeanDillon,LakeCity,TN)
TTITLE3=Don'tYouEvenThinkAboutLeaving(DDillon,RandyScruggs;1989,DeanDillon,LakeCity,TN)
TTITLE4=I'veLearnedToLive(DDillon,FDycus;1989,DeanDillon,LakeCity,TN)
TTITLE5=It'sLoveThatMakesYouSexy(DDillon,FDycus;1989,DeanDillon,LakeCity,TN)
TTITLE6=BackInTheSwingOfThings(DDillon,Gosdin,Cannon;1989,DeanDillon,LakeCity,TN)
TTITLE7=SummerWasABummer(DDillon,HCochran;1989,DeanDillon,LakeCity,TN)
TTITLE8=HerThinkin'I'mDoin'HerWrong(DDillon,GMartin;1989,DeanDillon,LakeCity,TN)
TTITLE9=Holdin'Pattern(DDillon,CPhillips;1989,DeanDillon,LakeCity,TN)
EXTD=Capitol 1989 CDP7-92079-2\nMillenniumMusicProjectFormat
EXTT0=
EXTT1=
EXTT2=
EXTT3=
EXTT4=
EXTT5=
EXTT6=
EXTT7=
EXTT8=
EXTT9=
PLAYORDER=
